<?xml version="1.0" encoding="UTF-8"?>
<svg version="1.1" xmlns="http://www.w3.org/2000/svg" width="1184" height="189">
<path d="M0 0 C1.1859375 -0.02578125 2.371875 -0.0515625 3.59375 -0.078125 C7.40531463 0.24204643 10.15637052 1.06436534 13.70654297 2.34521484 C17.24405283 3.49099456 20.83519288 4.32555876 24.45703125 5.15234375 C25.17233002 5.31781708 25.88762878 5.48329041 26.62460327 5.65377808 C29.6121905 6.34359719 32.60050884 7.02906806 35.59350586 7.69506836 C37.80123335 8.1886108 40.00412835 8.70025497 42.20703125 9.21484375 C42.87998734 9.35977768 43.55294342 9.50471161 44.24629211 9.65403748 C48.41840832 10.64649527 50.83773741 11.86322079 53.5 15.25 C53.90992188 16.49716797 53.90992188 16.49716797 54.328125 17.76953125 C56.01650311 21.34326491 58.81046315 22.3776274 62.25 23.9375 C62.8584375 24.23205078 63.466875 24.52660156 64.09375 24.83007812 C67.81956955 26.60143464 71.58253868 27.97575717 75.5 29.25 C75.56965512 40.56829882 75.62288997 51.88654624 75.65543652 63.20501614 C75.67106094 68.4612176 75.69224023 73.71727189 75.72631836 78.97338867 C75.75902688 84.05030314 75.77687724 89.12707647 75.78463173 94.20408821 C75.79015464 96.13647748 75.8009394 98.06885945 75.81719017 100.00118828 C75.83911733 102.71767462 75.84196057 105.43358522 75.84057617 108.15014648 C75.851362 108.94065399 75.86214783 109.7311615 75.8732605 110.54562378 C75.84200934 116.25039116 74.55093833 120.94873131 72.5 126.25 C71.93539062 127.79300781 71.93539062 127.79300781 71.359375 129.3671875 C67.32347751 139.4000876 61.99370244 148.40775326 54.5 156.25 C53.84 156.25 53.18 156.25 52.5 156.25 C52.273125 156.806875 52.04625 157.36375 51.8125 157.9375 C48.8308688 163.1908502 43.86401559 166.64910793 39 170.0625 C38.38979004 170.49336914 37.77958008 170.92423828 37.15087891 171.36816406 C31.09241918 175.60299147 24.89650279 179.54050396 18.5 183.25 C17.49066406 183.85328125 16.48132813 184.4565625 15.44140625 185.078125 C8.42253217 188.98459848 2.51411805 190.76646912 -5.5 189.25 C-9.81906464 187.77968012 -13.62389532 185.62049338 -17.5 183.25 C-18.2429834 182.79947266 -18.9859668 182.34894531 -19.75146484 181.88476562 C-42.80642186 167.81172185 -42.80642186 167.81172185 -48 161.375 C-50.3563265 158.53669762 -52.79528903 156.00705902 -55.5 153.5 C-60.32029958 148.75443375 -63.34444928 143.18178972 -66.5 137.25 C-66.89058594 136.56035156 -67.28117187 135.87070313 -67.68359375 135.16015625 C-74.63916888 122.35865028 -75.05343289 110.13649553 -74.890625 95.94921875 C-74.88314851 94.01724335 -74.87746225 92.08526028 -74.87347412 90.15327454 C-74.8583285 85.11111876 -74.81914441 80.06943668 -74.7746582 75.02746582 C-74.7334643 69.8653809 -74.71541199 64.70321815 -74.6953125 59.54101562 C-74.65263758 49.44380428 -74.58452331 39.3469418 -74.5 29.25 C-73.61594482 28.91734131 -72.73188965 28.58468262 -71.82104492 28.24194336 C-70.65677979 27.79987549 -69.49251465 27.35780762 -68.29296875 26.90234375 C-67.14078857 26.46656006 -65.9886084 26.03077637 -64.80151367 25.58178711 C-60.73788735 23.9425738 -56.74136137 22.26046987 -53.5 19.25 C-53.17 18.21875 -52.84 17.1875 -52.5 16.125 C-52.17 15.17625 -51.84 14.2275 -51.5 13.25 C-46.10354589 10.8907105 -40.59357159 9.39431276 -34.87890625 8.0234375 C-33.7008567 7.73371567 -33.7008567 7.73371567 -32.49900818 7.43814087 C-30.02126992 6.82916426 -27.5420661 6.22648727 -25.0625 5.625 C-22.55806863 5.0158854 -20.05402734 4.40533701 -17.55101013 3.79043579 C-16.00048335 3.40963983 -14.44911889 3.03223568 -12.89686584 2.65853882 C-2.17127164 0.02783682 -2.17127164 0.02783682 0 0 Z " fill="#F50707" transform="translate(74.5,-0.25)"/>
<path d="M0 0 C11.88 0 23.76 0 36 0 C44.40505804 24.48429951 52.69830518 49.00138445 60.875 73.5625 C61.10217209 74.24487228 61.32934418 74.92724457 61.56340027 75.6302948 C64.37817299 84.08600804 67.19033831 92.54258699 70 101 C69.97003433 100.41727325 69.94006866 99.83454651 69.90919495 99.23416138 C68.90827416 78.96724613 68.87738707 58.73362015 68.93133545 38.4475708 C68.94176472 34.09526064 68.94617401 29.74294418 68.95117188 25.390625 C68.96173686 16.92706479 68.9792482 8.46354136 69 0 C78.24 0 87.48 0 97 0 C97 48.18 97 96.36 97 146 C84.79 146 72.58 146 60 146 C48.78 112.34 37.56 78.68 26 44 C26.33 51.92 26.66 59.84 27 68 C27.0743251 74.47155835 27.11921407 80.93542109 27.09765625 87.40625 C27.09578118 89.12072711 27.09436247 90.83520477 27.09336853 92.54968262 C27.08962875 96.96840001 27.07987646 101.38708223 27.06866455 105.80578613 C27.05826183 110.35229009 27.05383139 114.89879997 27.04882812 119.4453125 C27.03824238 128.2968926 27.02071995 137.14843782 27 146 C18.09 146 9.18 146 0 146 C0 97.82 0 49.64 0 0 Z M71 104 C72 107 72 107 72 107 Z " fill="#FFFFFF" transform="translate(965,22)"/>
<path d="M0 0 C72.29642116 0 72.29642116 0 87.25 13.625 C98.12932995 25.14299507 99.31763985 39.05992908 99.30078125 54.11328125 C99.3046783 55.57382832 99.309015 57.03437428 99.31376648 58.49491882 C99.3211921 61.54507126 99.32096463 64.59510787 99.31567383 67.64526367 C99.30989074 71.52155778 99.32679968 75.39737226 99.3500185 79.27358723 C99.36487315 82.28766066 99.36561165 85.30162176 99.36250877 88.31572533 C99.36301634 89.74322647 99.36814576 91.17073487 99.37832069 92.59819984 C99.47126104 107.46043107 97.22952003 121.5420728 86.75 132.8125 C63.37556845 154.14549648 28.82374056 146 0 146 C0 97.82 0 49.64 0 0 Z M31 28 C31 58.03 31 88.06 31 119 C48.29130862 119.96712601 48.29130862 119.96712601 63 113 C66.59688442 107.95052764 68.12065724 103.41653444 68.16113281 97.26269531 C68.17074036 96.08427063 68.1803479 94.90584595 68.19024658 93.69171143 C68.19449646 92.41672791 68.19874634 91.14174438 68.203125 89.828125 C68.20882507 88.51720886 68.21452515 87.20629272 68.22039795 85.85565186 C68.23089958 83.07824313 68.23674721 80.30086328 68.24023438 77.5234375 C68.24570681 73.97831219 68.269711 70.43357334 68.29820633 66.88856888 C68.32140715 63.49342882 68.3232877 60.09834017 68.328125 56.703125 C68.3404718 55.4362384 68.3528186 54.16935181 68.36553955 52.86407471 C68.34541627 44.87783356 67.960223 39.52026519 62.6875 33.25 C52.42856828 24.66112694 46.58974866 28 31 28 Z " fill="#FFFFFF" transform="translate(1085,22)"/>
<path d="M0 0 C72.29642116 0 72.29642116 0 87.25 13.625 C98.12932995 25.14299507 99.31763985 39.05992908 99.30078125 54.11328125 C99.3046783 55.57382832 99.309015 57.03437428 99.31376648 58.49491882 C99.3211921 61.54507126 99.32096463 64.59510787 99.31567383 67.64526367 C99.30989074 71.52155778 99.32679968 75.39737226 99.3500185 79.27358723 C99.36487315 82.28766066 99.36561165 85.30162176 99.36250877 88.31572533 C99.36301634 89.74322647 99.36814576 91.17073487 99.37832069 92.59819984 C99.47126104 107.46043107 97.22952003 121.5420728 86.75 132.8125 C63.37556845 154.14549648 28.82374056 146 0 146 C0 97.82 0 49.64 0 0 Z M31 28 C31 58.03 31 88.06 31 119 C48.29130862 119.96712601 48.29130862 119.96712601 63 113 C66.59688442 107.95052764 68.12065724 103.41653444 68.16113281 97.26269531 C68.17074036 96.08427063 68.1803479 94.90584595 68.19024658 93.69171143 C68.19449646 92.41672791 68.19874634 91.14174438 68.203125 89.828125 C68.20882507 88.51720886 68.21452515 87.20629272 68.22039795 85.85565186 C68.23089958 83.07824313 68.23674721 80.30086328 68.24023438 77.5234375 C68.24570681 73.97831219 68.269711 70.43357334 68.29820633 66.88856888 C68.32140715 63.49342882 68.3232877 60.09834017 68.328125 56.703125 C68.3404718 55.4362384 68.3528186 54.16935181 68.36553955 52.86407471 C68.34541627 44.87783356 67.960223 39.52026519 62.6875 33.25 C52.42856828 24.66112694 46.58974866 28 31 28 Z " fill="#FFFFFF" transform="translate(485,22)"/>
<path d="M0 0 C8.97858295 6.92195027 14.24602801 15.71644076 16.28515625 26.76171875 C16.28515625 29.73171875 16.28515625 32.70171875 16.28515625 35.76171875 C6.05515625 35.76171875 -4.17484375 35.76171875 -14.71484375 35.76171875 C-15.70484375 31.30671875 -15.70484375 31.30671875 -16.71484375 26.76171875 C-19.3600905 23.48996619 -21.81215929 21.29587747 -25.71484375 19.76171875 C-29.01723226 19.40675797 -29.01723226 19.40675797 -32.58984375 19.44921875 C-34.38035156 19.42408203 -34.38035156 19.42408203 -36.20703125 19.3984375 C-40.15304127 19.80710001 -42.40902703 20.57472301 -45.71484375 22.76171875 C-49.37505586 27.29617007 -50.21807715 30.35661425 -50.23242188 36.140625 C-50.23943115 36.85362762 -50.24644043 37.56663025 -50.25366211 38.30123901 C-50.27117259 40.64263622 -50.25964532 42.98281068 -50.24609375 45.32421875 C-50.24879069 46.96037018 -50.2526748 48.59652005 -50.25769043 50.23266602 C-50.26357603 53.65559199 -50.25505319 57.07809939 -50.23632812 60.50097656 C-50.21353871 64.87918925 -50.22666689 69.25642104 -50.25061798 73.63459778 C-50.26510162 77.01134576 -50.26045831 80.38786282 -50.25010681 83.76461792 C-50.24744659 85.37849037 -50.25068442 86.99238408 -50.26002502 88.60623169 C-50.27023356 90.8656534 -50.25463231 93.12350701 -50.23242188 95.3828125 C-50.2292395 96.66599365 -50.22605713 97.9491748 -50.22277832 99.27124023 C-49.62308977 103.39224349 -48.31337756 105.54318961 -45.71484375 108.76171875 C-41.33993696 111.64587149 -37.84256205 112.17060483 -32.65234375 112.13671875 C-31.46511719 112.14445312 -30.27789062 112.1521875 -29.0546875 112.16015625 C-25.48423052 111.734207 -23.65774262 110.74463457 -20.71484375 108.76171875 C-20.05484375 108.76171875 -19.39484375 108.76171875 -18.71484375 108.76171875 C-17.07634755 104.72009479 -15.62885752 101.12798047 -15.3984375 96.75 C-15.36032959 96.06719971 -15.32222168 95.38439941 -15.28295898 94.6809082 C-15.21830444 93.39059692 -15.21830444 93.39059692 -15.15234375 92.07421875 C-15.00796875 89.33109375 -14.86359375 86.58796875 -14.71484375 83.76171875 C-21.64484375 83.76171875 -28.57484375 83.76171875 -35.71484375 83.76171875 C-35.71484375 74.85171875 -35.71484375 65.94171875 -35.71484375 56.76171875 C-18.55484375 56.76171875 -1.39484375 56.76171875 16.28515625 56.76171875 C16.36765625 64.24859375 16.45015625 71.73546875 16.53515625 79.44921875 C16.57157227 81.78459717 16.60798828 84.11997559 16.64550781 86.52612305 C16.79245169 102.50547207 15.6727009 115.49065771 4.28515625 127.76171875 C-9.99352045 140.29055762 -26.58900633 140.90274488 -44.71484375 139.76171875 C-55.34371942 138.33010278 -65.76657049 132.67256744 -73.11328125 124.890625 C-79.17314499 116.83544028 -81.85558626 108.86751409 -81.8918457 98.95483398 C-81.8984169 98.17212631 -81.9049881 97.38941864 -81.91175842 96.58299255 C-81.93144845 93.99543145 -81.94314727 91.40792842 -81.953125 88.8203125 C-81.95720053 87.93304033 -81.96127605 87.04576817 -81.96547508 86.13160896 C-81.98632211 81.4310848 -82.00062716 76.73058966 -82.01000977 72.0300293 C-82.02104373 67.19725442 -82.05541255 62.36494383 -82.09518147 57.53233242 C-82.12145218 53.79772646 -82.12971106 50.06322911 -82.13329124 46.32853889 C-82.13813383 44.5485122 -82.14968062 42.76848959 -82.16832924 40.988554 C-82.31422556 26.13464835 -80.51962217 15.03092504 -69.9375 3.890625 C-52.09500099 -13.07616854 -19.9848681 -12.90080103 0 0 Z " fill="#FFFFFF" transform="translate(290.71484375,29.23828125)"/>
<path d="M0 0 C9.84153356 7.22793948 15.16164557 15.26940985 18.125 27.1875 C18.31405509 29.87257634 18.4189803 32.45335458 18.41552734 35.13549805 C18.42224457 35.89753036 18.42896179 36.65956268 18.43588257 37.44468689 C18.45476858 39.9462652 18.45878239 42.44757372 18.4609375 44.94921875 C18.46737343 46.70408738 18.47410237 48.45895497 18.48110962 50.21382141 C18.49306 53.8879342 18.4967929 57.56195314 18.49560547 61.23608398 C18.49540275 65.91513905 18.52266607 70.59358355 18.55714989 75.27249432 C18.57952992 78.897351 18.58343958 82.52206353 18.58238602 86.14698219 C18.58472679 87.87035023 18.59346315 89.59372319 18.60905075 91.31702232 C18.73242341 106.36905124 16.79133292 117.96982979 6.16015625 129.27734375 C-5.89663233 140.98529215 -19.99034708 141.65891346 -35.87890625 141.46484375 C-49.21205467 141.04876506 -60.09667519 135.83263414 -69.30859375 126.171875 C-75.46999719 118.3664063 -78.17819439 109.07884256 -78.16552734 99.23950195 C-78.17224457 98.47746964 -78.17896179 97.71543732 -78.18588257 96.93031311 C-78.20476858 94.4287348 -78.20878239 91.92742628 -78.2109375 89.42578125 C-78.21737343 87.67091262 -78.22410237 85.91604503 -78.23110962 84.16117859 C-78.24306 80.4870658 -78.2467929 76.81304686 -78.24560547 73.13891602 C-78.24540275 68.45986095 -78.27266607 63.78141645 -78.30714989 59.10250568 C-78.32952992 55.477649 -78.33343958 51.85293647 -78.33238602 48.22801781 C-78.33472679 46.50464977 -78.34346315 44.78127681 -78.35905075 43.05797768 C-78.48242341 28.00594876 -76.54133292 16.40517021 -65.91015625 5.09765625 C-49.57058313 -10.76916249 -18.95184757 -11.76212836 0 0 Z M-43.875 24.1875 C-46.68136081 28.75827562 -47.25657933 32.22576415 -47.27905273 37.55053711 C-47.28591599 38.26193344 -47.29277924 38.97332977 -47.29985046 39.70628357 C-47.31805433 42.04267709 -47.31429037 44.37839497 -47.30859375 46.71484375 C-47.31315871 48.34859941 -47.31846522 49.98235315 -47.32447815 51.61610413 C-47.33339668 55.03475766 -47.33100064 58.45317743 -47.32104492 61.87182617 C-47.30955769 66.24093823 -47.32976879 70.60924176 -47.35896206 74.97824764 C-47.37735679 78.35072407 -47.37702511 81.7230079 -47.37132454 85.09552193 C-47.37117172 86.70578711 -47.37718349 88.31606568 -47.38961601 89.92628288 C-47.40458683 92.18305246 -47.39380647 94.43834331 -47.37670898 96.69506836 C-47.37654282 97.9760289 -47.37637665 99.25698944 -47.37620544 100.57676697 C-46.74820394 105.10095119 -45.43730548 107.42276878 -42.875 111.1875 C-36.70781156 115.37023945 -30.05403766 114.93044692 -22.875 114.1875 C-18.70300378 112.9649117 -16.43671434 111.03007151 -14 107.375 C-11.2928623 99.70477653 -11.71421903 91.77151656 -11.70703125 83.73046875 C-11.70370285 82.43232742 -11.70037445 81.1341861 -11.69694519 79.79670715 C-11.69098056 77.05578785 -11.68910251 74.31489994 -11.68969727 71.57397461 C-11.68979869 68.08763689 -11.6761547 64.60150372 -11.65892506 61.11521435 C-11.64503224 57.75779667 -11.64571376 54.40041471 -11.64453125 51.04296875 C-11.63734573 49.80411423 -11.63016022 48.5652597 -11.62275696 47.28886414 C-11.38954063 35.00238258 -11.38954063 35.00238258 -16.25 24.1875 C-24.16547264 18.1566637 -36.08246828 17.60713988 -43.875 24.1875 Z " fill="#FFFFFF" transform="translate(406.875,27.8125)"/>
<path d="M0 0 C30.03 0 60.06 0 91 0 C91 8.91 91 17.82 91 27 C70.87 27 50.74 27 30 27 C30 37.56 30 48.12 30 59 C47.82 59 65.64 59 84 59 C84 67.58 84 76.16 84 85 C66.18 85 48.36 85 30 85 C30 96.55 30 108.1 30 120 C50.13 120 70.26 120 91 120 C91 128.58 91 137.16 91 146 C60.97 146 30.94 146 0 146 C0 97.82 0 49.64 0 0 Z " fill="#FFFFFF" transform="translate(849,22)"/>
<path d="M0 0 C30.03 0 60.06 0 91 0 C91 8.91 91 17.82 91 27 C70.87 27 50.74 27 30 27 C30 37.56 30 48.12 30 59 C47.82 59 65.64 59 84 59 C84 67.58 84 76.16 84 85 C66.18 85 48.36 85 30 85 C30 96.55 30 108.1 30 120 C50.13 120 70.26 120 91 120 C91 128.58 91 137.16 91 146 C60.97 146 30.94 146 0 146 C0 97.82 0 49.64 0 0 Z " fill="#FFFFFF" transform="translate(609,22)"/>
<path d="M0 0 C31.35 0 62.7 0 95 0 C95 9.57 95 19.14 95 29 C73.55 29 52.1 29 30 29 C30 39.23 30 49.46 30 60 C49.47 60 68.94 60 89 60 C89 69.57 89 79.14 89 89 C69.86 89 50.72 89 31 89 C31 107.81 31 126.62 31 146 C20.77 146 10.54 146 0 146 C0 97.82 0 49.64 0 0 Z " fill="#FFFFFF" transform="translate(727,22)"/>
</svg>
