<?xml version="1.0" encoding="UTF-8"?>
<svg version="1.1" xmlns="http://www.w3.org/2000/svg" width="542" height="712">
<path d="M0 0 C0.91424429 0.24966113 1.82848858 0.49932226 2.77043724 0.75654888 C5.80813256 1.58720674 8.84411727 2.42394629 11.88012695 3.26074219 C14.04152394 3.8531828 16.20302011 4.44526166 18.36460876 5.03700256 C24.16672644 6.62654147 29.96736173 8.22142754 35.76770782 9.81741714 C40.56244883 11.13598083 45.35805384 12.45138542 50.15368652 13.7667017 C91.01184645 24.97308878 131.85349313 36.23974213 172.6809082 47.55761719 C172.72554199 48.51240967 172.77017578 49.46720215 172.81616211 50.45092773 C172.88754395 51.70687744 172.95892578 52.96282715 173.0324707 54.25683594 C173.09772949 55.50037842 173.16298828 56.7439209 173.23022461 58.02514648 C174.35785903 66.86357683 180.79239127 72.08354735 187.51293945 77.30761719 C193.34925341 81.45276742 199.44741158 85.04783437 205.6809082 88.55761719 C206.31706055 88.9235498 206.95321289 89.28948242 207.60864258 89.66650391 C219.4571972 96.45037049 231.89524003 101.46273002 244.6340332 106.32836914 C247.241273 107.38024834 249.80449694 108.48897679 252.37133789 109.63444519 C253.1791571 109.99460315 253.98697632 110.3547611 254.8192749 110.72583294 C255.43361389 111.00032174 256.04795288 111.27481054 256.6809082 111.55761719 C256.74975387 148.47554909 256.80252775 185.39347123 256.83410419 222.31145447 C256.83785578 226.68175752 256.8417388 231.05206043 256.84570312 235.42236328 C256.84649006 236.29231796 256.84727699 237.16227264 256.84808777 238.05858958 C256.86109934 252.09739104 256.88472945 266.1361552 256.91236659 280.17493463 C256.94053959 294.60756657 256.95710944 309.04017914 256.96317369 323.47283745 C256.96726562 332.36013302 256.9801325 341.2473231 257.0046576 350.13458616 C257.02066211 356.25017983 257.02527577 362.36571992 257.02141234 368.48133296 C257.01951334 371.99619074 257.02217288 375.51086581 257.03852463 379.02569008 C257.19806275 419.32490009 249.57235341 456.52180801 233.6809082 493.55761719 C233.37604492 494.27191895 233.07118164 494.9862207 232.75708008 495.72216797 C211.07085873 545.82764374 172.34093028 589.05627452 130.6809082 623.55761719 C130.09519043 624.04294922 129.50947266 624.52828125 128.90600586 625.02832031 C101.22491656 647.83423269 70.82934375 667.38203731 39.19702148 684.21142578 C36.91944022 685.42999585 34.6555341 686.66972866 32.39575195 687.92089844 C24.02934269 692.51552454 15.468235 696.56137024 6.7434082 700.43261719 C5.70079834 700.89740479 4.65818848 701.36219238 3.58398438 701.84106445 C0.63397257 703.12879234 -2.33416881 704.3533719 -5.3190918 705.55761719 C-6.17027588 705.93136475 -7.02145996 706.3051123 -7.8984375 706.69018555 C-14.00656798 709.04048924 -17.71505173 708.35699821 -23.66333008 705.77490234 C-24.64285645 705.31132324 -25.62238281 704.84774414 -26.6315918 704.37011719 C-28.19756104 703.67088135 -28.19756104 703.67088135 -29.79516602 702.95751953 C-32.9850395 701.52181068 -36.15223526 700.04328445 -39.3190918 698.55761719 C-41.13749343 697.72945625 -42.95647203 696.90256059 -44.77612305 696.07714844 C-92.93929041 673.94568268 -143.67581748 642.59866498 -180.75268555 604.12792969 C-182.51390038 602.36232279 -184.36532085 600.74537122 -186.2565918 599.12011719 C-192.47938686 593.73824038 -198.13073081 587.90596769 -203.48706055 581.66699219 C-205.47220767 579.38132173 -207.5194901 577.1606034 -209.5690918 574.93261719 C-215.15311066 568.72605568 -220.27654381 562.20626123 -225.3190918 555.55761719 C-226.08527832 554.55214844 -226.08527832 554.55214844 -226.86694336 553.52636719 C-236.02231829 541.432021 -243.84790666 528.74803359 -251.3190918 515.55761719 C-251.70935547 514.88166504 -252.09961914 514.20571289 -252.50170898 513.50927734 C-273.19905212 477.59891011 -285.54811787 433.71570118 -285.43934631 392.23165894 C-285.44020074 391.02663385 -285.44105516 389.82160876 -285.44193548 388.58006775 C-285.44329035 385.26197776 -285.44019357 381.94394769 -285.43515742 378.62586498 C-285.43081706 375.03773188 -285.43230188 371.44960045 -285.43305969 367.86146545 C-285.43358266 361.65360964 -285.4304596 355.44576438 -285.42482185 349.23791122 C-285.41667606 340.26252727 -285.41408848 331.2871484 -285.41283386 322.31176116 C-285.41064818 307.74787694 -285.40400121 293.18399835 -285.39453125 278.62011719 C-285.38534462 264.47721383 -285.37826991 250.33431199 -285.37402344 236.19140625 C-285.37376071 235.31884378 -285.37349799 234.44628131 -285.37322731 233.54727755 C-285.37192222 229.16965103 -285.37065852 224.7920245 -285.3694154 220.41439795 C-285.35905784 184.1288004 -285.34145269 147.84320923 -285.3190918 111.55761719 C-283.43913281 110.77230287 -281.55896432 109.98749006 -279.67871094 109.20288086 C-278.63171524 108.76578293 -277.58471954 108.328685 -276.5059967 107.87834167 C-273.53242803 106.64602848 -270.55146032 105.43453381 -267.56518555 104.23339844 C-250.26990989 97.22760542 -233.46277118 89.58543688 -218.3190918 78.55761719 C-217.41545898 77.91179687 -216.51182617 77.26597656 -215.58081055 76.60058594 C-209.95684589 72.3763636 -205.0782894 68.14579837 -202.3190918 61.55761719 C-201.81267275 57.98953989 -201.81267275 57.98953989 -201.66674805 54.25292969 C-201.56052124 52.36985107 -201.56052124 52.36985107 -201.45214844 50.44873047 C-201.40823975 49.49466309 -201.36433105 48.5405957 -201.3190918 47.55761719 C-191.65278356 44.89871178 -181.98641358 42.24003096 -172.32000732 39.58148193 C-168.77902161 38.60760347 -165.23804758 37.63368254 -161.69708252 36.659729 C-140.92492268 30.94634544 -120.15194834 25.235946 -99.37695503 19.53287315 C-96.25306871 18.67529305 -93.12920772 17.8176207 -90.00535583 16.95991516 C-87.94692994 16.39474485 -85.88850403 15.82957457 -83.83007812 15.2644043 C-82.82003566 14.98707994 -81.80999319 14.70975557 -80.76934338 14.42402744 C-74.76747182 12.77618542 -68.76541839 11.12900778 -62.76323795 9.48229122 C-58.99080141 8.4471517 -55.21852986 7.41141187 -51.4462986 6.37552452 C-49.70305251 5.89695188 -47.95973743 5.41863047 -46.21634483 4.94059181 C-44.5868077 4.4937523 -42.95738934 4.04647935 -41.32810116 3.59873295 C-39.79444851 3.17769793 -38.26037529 2.75819133 -36.72584629 2.3403616 C-33.23624259 1.38544252 -29.76467474 0.39875942 -26.31158447 -0.68133545 C-24.47572784 -1.24633759 -24.47572784 -1.24633759 -22.6027832 -1.82275391 C-21.55120026 -2.15971283 -20.49961731 -2.49667175 -19.41616821 -2.84384155 C-12.81361538 -4.11985149 -6.34766189 -1.75884713 0 0 Z " fill="#F50707" transform="translate(285.319091796875,3.4423828125)"/>
</svg>
